<?xml version="1.0" standalone="no"?>
<!DOCTYPE svg PUBLIC "-//W3C//DTD SVG 20010904//EN"
 "http://www.w3.org/TR/2001/REC-SVG-20010904/DTD/svg10.dtd">
<svg version="1.0" xmlns="http://www.w3.org/2000/svg"
 width="700.000000pt" height="700.000000pt" viewBox="0 0 700.000000 700.000000"
 preserveAspectRatio="xMidYMid meet">
<metadata>
Created by potrace 1.14, written by Peter Selinger 2001-2017
</metadata>
<g transform="translate(0.000000,700.000000) scale(0.100000,-0.100000)"
fill="#000000" stroke="none">
<path d="M3097 6704 c-1 -1 -38 -4 -82 -7 -99 -8 -107 -9 -290 -57 -146 -38
-268 -63 -370 -75 -27 -3 -63 -8 -80 -10 -16 -3 -46 -7 -65 -10 -93 -12 -169
-29 -165 -35 3 -5 -3 -6 -12 -4 -30 7 -43 -10 -49 -62 -6 -49 -8 -51 -63 -79
-31 -16 -79 -52 -107 -80 -53 -53 -48 -41 -167 -352 -39 -104 -92 -182 -140
-209 -20 -11 -35 -23 -33 -25 3 -2 7 -16 9 -29 3 -14 14 -53 26 -87 12 -34 21
-68 21 -75 0 -18 -116 -135 -151 -154 -16 -8 -29 -22 -29 -32 0 -22 102 -324
135 -397 14 -32 19 -53 12 -48 -6 5 -23 10 -37 11 -14 1 -35 4 -47 7 -13 3
-23 3 -23 0 0 -4 17 -32 38 -63 46 -69 61 -105 102 -242 39 -129 108 -347 121
-378 16 -41 12 -47 -41 -47 -116 -1 -150 -99 -145 -420 1 -121 6 -171 18 -204
24 -63 101 -187 156 -251 57 -67 111 -147 175 -260 56 -98 71 -117 107 -136
50 -25 87 -25 151 1 14 6 23 -14 58 -127 101 -326 117 -357 267 -517 87 -94
217 -221 282 -278 20 -17 35 -41 37 -58 5 -41 17 -253 17 -290 -1 -56 -3 -61
-30 -91 -50 -54 -284 -245 -293 -239 -8 5 -144 -46 -270 -103 -58 -25 -95 -39
-145 -51 -39 -10 -56 -13 -145 -26 -56 -8 -89 -14 -115 -19 -11 -2 -42 -7 -70
-10 -175 -24 -454 -91 -560 -136 -389 -163 -572 -423 -639 -908 l-6 -42 3027
2 c2149 2 3027 6 3026 14 -1 6 -4 28 -7 50 -2 21 -10 62 -16 89 -6 28 -13 57
-15 66 -11 51 -70 209 -104 277 -161 321 -427 492 -896 577 -33 6 -221 33
-275 40 -19 2 -51 7 -70 10 -19 2 -55 7 -80 10 -96 13 -140 28 -275 95 -169
83 -192 92 -200 80 -6 -10 -105 67 -237 183 -31 27 -61 61 -66 76 -9 28 -9 80
2 251 l6 105 53 45 c103 88 360 354 396 410 41 63 55 98 100 245 16 55 42 139
56 186 l26 86 40 -14 c75 -25 147 10 196 95 84 148 136 231 165 264 53 60 62
71 93 118 118 179 129 221 122 455 -8 227 -17 272 -67 320 -23 22 -39 29 -76
29 -40 1 -45 3 -41 21 19 80 57 280 62 325 3 30 8 73 11 95 12 84 5 302 -11
385 -34 166 -72 264 -163 413 l-36 58 -2 147 c-2 159 -5 186 -36 277 -42 127
-134 241 -280 348 -42 32 -79 57 -82 57 -3 0 -31 16 -63 37 -75 48 -228 119
-383 177 -69 26 -163 66 -210 89 -47 22 -91 41 -97 40 -7 0 -10 3 -7 8 12 19
-20 7 -56 -21 -150 -119 -347 -111 -609 26 -102 54 -107 55 -194 57 -49 1 -89
2 -90 1z"/>
</g>
</svg>
