<?xml version="1.0" encoding="UTF-8" standalone="no"?>
<!-- Uploaded to: SVG Repo, www.svgrepo.com, Transformed by: SVG Repo Mixer Tools -->

<svg
   width="800"
   height="258.16733"
   viewBox="0 -85 251 80.999999"
   fill="none"
   version="1.1"
   id="svg11"
   sodipodi:docname="arrow-reverse.svg"
   inkscape:version="1.2.2 (b0a8486, 2022-12-01)"
   xmlns:inkscape="http://www.inkscape.org/namespaces/inkscape"
   xmlns:sodipodi="http://sodipodi.sourceforge.net/DTD/sodipodi-0.dtd"
   xmlns="http://www.w3.org/2000/svg"
   xmlns:svg="http://www.w3.org/2000/svg">
  <sodipodi:namedview
     id="namedview13"
     pagecolor="#ffffff"
     bordercolor="#000000"
     borderopacity="0.25"
     inkscape:showpageshadow="2"
     inkscape:pageopacity="0.0"
     inkscape:pagecheckerboard="0"
     inkscape:deskcolor="#d1d1d1"
     showgrid="false"
     inkscape:zoom="0.295"
     inkscape:cx="-144.0678"
     inkscape:cy="130.50847"
     inkscape:window-width="1280"
     inkscape:window-height="681"
     inkscape:window-x="0"
     inkscape:window-y="23"
     inkscape:window-maximized="0"
     inkscape:current-layer="g4" />
  <g
     clip-path="url(#clip0_3_230)"
     id="g4"
     transform="matrix(1,0,0,-1,0,-4)">
    <path
       d="m 236.55648,54.974296 c -1.9043,-8.1948 -3.597,-16.1795 -5.7129,-25.2148 5.5013,0.6304 8.6751,3.9924 9.9446,7.7746 3.80864,11.3466 7.40564,22.9034 9.94471,34.67032 1.48112,6.72394 -3.38542,10.29606 -9.94471,8.194825 -11.0026,-3.361975 -21.7936,-7.354325 -32.7963,-11.136545 -0.6347,-0.2101 -1.4811,-0.4203 -1.6927,-0.8405 -1.0579,-1.4709 -1.6927,-3.1518 -2.539,-4.8328 1.4811,-0.6304 2.9622,-2.1013 4.2317,-1.8911 4.4434,0.6303 8.6752,1.6809 12.907,2.5214 2.3275,0.4203 4.4434,1.0506 7.8288,0 -2.3275,-2.5215 -4.655,-5.253 -6.9825,-7.7745 C 171.38708,6.4357963 95.849982,-4.0703037 33.218982,29.759496 c -8.04,4.4126 -15.446,9.6657 -23.2740005,14.4985 -2.751,1.681 -5.502,3.1519 -8.252,4.8328 -0.635,-0.4202 -1.05799999,-1.0506 -1.692999989495,-1.4708 C 0.63498151,45.728896 0.84598151,43.207396 2.3269815,41.946696 c 4.655,-4.4126 9.3100005,-8.8252 14.6000005,-12.6074 52.474,-37.8221997 125.471998,-39.2930997 181.966598,-3.1519 10.7911,6.9341 20.3126,15.7593 30.2572,23.744 2.1159,1.681 3.8086,3.572 5.7129,5.4632 0.4232,0.2101 1.058,0 1.6928,-0.4203 z"
       fill="#0d1927"
       id="path2"
       style="fill:#ef4a4d;fill-opacity:1" />
  </g>
  <defs
     id="defs9">
    <clipPath
       id="clip0_3_230">
      <rect
         width="251"
         height="81"
         fill="#EF4A4D"
         id="rect6"
         x="0"
         y="0" />
    </clipPath>
  </defs>
</svg>
