<?xml version="1.0" encoding="UTF-8" standalone="no"?>
<!-- Uploaded to: SVG Repo, www.svgrepo.com, Generator: SVG Repo Mixer Tools -->

<svg
   width="583.32306"
   height="415.71118"
   viewBox="0 0 17.499692 12.471335"
   fill="none"
   version="1.1"
   id="svg6"
   xmlns="http://www.w3.org/2000/svg"
   xmlns:svg="http://www.w3.org/2000/svg">
  <defs
     id="defs10" />
  <path
     d="m 3.9798554,12.471314 c -1.05976,0.0035 -2.07758,-0.4137 -2.83,-1.16 -0.76387002,-0.8115 -1.17660002,-1.8917001 -1.14851002,-3.0058001 0.02808,-1.1142 0.49472,-2.1722 1.29851002,-2.9442 l 3.76,-3.79 c 0.81728,-0.84366001 1.93559,-1.32910001 3.10999,-1.35000001 0.5275,0.00352 1.0492,0.11135 1.5349,0.3173 0.4856996,0.20595 0.9257996,0.50594001 1.2950996,0.88270001 0.7743,0.81629 1.1933,1.90627 1.1652,3.031 -0.0282,1.1247 -0.5011,2.1924 -1.3152,2.969 l -1.2599996,1.26 c -0.0687,0.0737 -0.1515,0.1328 -0.2435,0.1738 -0.092,0.041 -0.1913,0.063 -0.292,0.0648 -0.1007,0.0018 -0.2007,-0.0168 -0.2941,-0.0545 -0.0934,-0.0377 -0.1782,-0.0938 -0.2494,-0.1651 -0.0713,-0.0712 -0.1274,-0.156 -0.1651,-0.2494 -0.0377,-0.0934 -0.0563,-0.1934 -0.0545,-0.2941 0.0018,-0.1007 0.0238,-0.2 0.0648,-0.292 0.041,-0.092 0.1001,-0.1748 0.1738,-0.2435 l 1.22,-1.3 c 0.5246996,-0.4924 0.8337996,-1.1721 0.8599996,-1.8912 0.0262,-0.7191 -0.2325,-1.41947 -0.7199996,-1.9488 -0.5329,-0.4647 -1.2233,-0.70803 -1.9298,-0.68014 -0.7065,0.02788 -1.37559,0.32488 -1.87019,0.83014 l -3.73,3.78 c -0.51488,0.4912 -0.81843,1.1635 -0.84642,1.8746 -0.028,0.7111 0.22176,1.4052 0.69642,1.9354001 0.26087,0.2578 0.57528,0.4551 0.92092,0.5778 0.34564,0.1227 0.71404,0.1678 1.07908,0.1322 0.09726,-0.0096 0.19546,10e-5 0.28894,0.0286 0.09348,0.0285 0.18039,0.0753 0.2557,0.1376 0.07531,0.0623 0.13753,0.1389 0.18308,0.2253 0.04554,0.0865 0.07351,0.1812 0.08228,0.2785 0.01955,0.1975 -0.03998,0.3947 -0.16557,0.5484 -0.12559,0.1537 -0.30698,0.2514 -0.50443,0.2716 z"
     fill="#2c4473"
     id="path2" />
  <path
     d="m 9.3298454,12.221314 c -0.5275,-0.0035 -1.0492,-0.1113 -1.5349,-0.3173 -0.4857,-0.2059 -0.9258,-0.5059 -1.2951,-0.8827 -0.77426,-0.8163 -1.19326,-1.9063001 -1.16514,-3.0310001 0.02811,-1.1247 0.50106,-2.1924 1.31514,-2.969 l 1.26,-1.26 c 0.0687,-0.07368 0.1515,-0.13279 0.2435,-0.17378 0.092,-0.04099 0.1913,-0.06303 0.292,-0.06481 0.1007,-0.00177 0.2007,0.01675 0.2941,0.05447 0.0934,0.03772 0.1782,0.09387 0.2494,0.16509 0.0713,0.07121 0.1274,0.15605 0.1651,0.24944 0.0377,0.09338 0.0563,0.19341 0.0545,0.29409 -0.0018,0.1007 -0.0238,0.2 -0.0648,0.292 -0.041,0.092 -0.1001,0.1748 -0.1738,0.2435 l -1.22,1.3 c -0.5247,0.4924 -0.8338,1.1721 -0.86,1.8912 -0.0262,0.7191 0.2326,1.4195 0.72,1.9488 0.5329,0.4647001 1.2233,0.7080001 1.9298,0.6801001 0.7064996,-0.0278 1.3755996,-0.3248 1.8701996,-0.8301001 l 3.77,-3.78 c 0.5093,-0.4966 0.8055,-1.1717 0.826,-1.88273 0.0206,-0.71101 -0.2362,-1.40214 -0.716,-1.92727 -0.2609,-0.2578 -0.5753,-0.45505 -0.9209,-0.57776 -0.3457,-0.1227 -0.7141,-0.16784 -1.0791,-0.13224 -0.0973,0.00964 -0.1955,-8e-5 -0.2889,-0.0286 -0.0935,-0.02853 -0.1804,-0.07528 -0.2557,-0.13758 -0.0753,-0.06229 -0.1376,-0.13889 -0.1831,-0.22536 -0.0456,-0.08647 -0.0735,-0.18111001 -0.0823,-0.27846001 -0.0196,-0.19752 0.04,-0.39473 0.1656,-0.54844 0.1256,-0.1537 0.3069,-0.25135 0.5044,-0.27156 0.5821,-0.06033 1.1704,0.00779 1.7233,0.19959 0.5529,0.19179 1.057,0.50257 1.4767,0.91041001 0.7639,0.81153 1.1766,1.89172 1.1485,3.00585 -0.0281,1.11415 -0.4947,2.17215 -1.2985,2.94415 l -3.76,3.7900001 c -0.8173,0.8437 -1.9356,1.3291 -3.1099996,1.35 z"
     fill="#2c4473"
     id="path4" />
</svg>
